<svg width="32" height="32" viewBox="0 0 96 96" fill="none" xmlns="http://www.w3.org/2000/svg">
<path d="M50.9819 22.6291C50.9819 27.9644 46.6568 32.2895 41.3215 32.2895C35.9862 32.2895 31.6611 27.9644 31.6611 22.6291C31.6611 17.2938 35.9862 12.9688 41.3215 12.9688C46.6568 12.9688 50.9819 17.2938 50.9819 22.6291Z" fill="#D6FDFF"/>
<path fill-rule="evenodd" clip-rule="evenodd" d="M52.9819 22.6291C52.9819 29.069 47.7614 34.2895 41.3215 34.2895C34.8817 34.2895 29.6611 29.069 29.6611 22.6291C29.6611 16.1893 34.8817 10.9688 41.3215 10.9688C47.7614 10.9688 52.9819 16.1893 52.9819 22.6291ZM41.3215 32.2895C46.6568 32.2895 50.9819 27.9644 50.9819 22.6291C50.9819 17.2938 46.6568 12.9688 41.3215 12.9688C35.9862 12.9688 31.6611 17.2938 31.6611 22.6291C31.6611 27.9644 35.9862 32.2895 41.3215 32.2895Z" fill="#32CDD5"/>
<path fill-rule="evenodd" clip-rule="evenodd" d="M42.8371 32.1713C47.4524 31.444 50.9818 27.4487 50.9818 22.6291C50.9818 17.2938 46.6567 12.9688 41.3214 12.9688C39.6901 12.9688 38.1533 13.3731 36.8057 14.087C37.2995 14.0092 37.8057 13.9688 38.3214 13.9688C43.6567 13.9688 47.9818 18.2938 47.9818 23.6291C47.9818 27.3331 45.8972 30.5503 42.8371 32.1713Z" fill="#C2EDF0"/>
<path d="M38.0303 18.25C38.0303 19.1647 37.2887 19.9062 36.374 19.9062C35.4593 19.9062 34.7178 19.1647 34.7178 18.25C34.7178 17.3353 35.4593 16.5938 36.374 16.5938C37.2887 16.5938 38.0303 17.3353 38.0303 18.25Z" fill="white"/>
<path d="M50.7367 25.6483C69.5744 29.5124 76.2964 54.2269 77.3027 66.1011L21.1518 68.5162C23.1644 52.6168 31.899 21.7841 50.7367 25.6483Z" fill="#3AAAFB"/>
<path fill-rule="evenodd" clip-rule="evenodd" d="M79.4717 68.009L79.2956 65.9315C78.7756 59.7955 76.791 50.385 72.4876 41.9604C68.1916 33.5503 61.4022 25.7937 51.1386 23.6884C45.8058 22.5945 41.1573 23.9814 37.2585 26.8733C33.4211 29.7196 30.3286 34.0005 27.8604 38.7476C22.9232 48.2433 20.1911 60.1795 19.1677 68.2644L18.87 70.6155L79.4717 68.009ZM77.3028 66.1004L21.1518 68.5155C21.2338 67.8679 21.3269 67.1955 21.4314 66.5017C23.8927 50.1619 32.6663 21.9409 50.7367 25.6476C68.5753 29.3068 75.5493 51.6631 77.0934 64.1076C77.1799 64.8046 77.2494 65.4706 77.3028 66.1004Z" fill="#0B6BB2"/>
<path fill-rule="evenodd" clip-rule="evenodd" d="M40.551 30.3752C41.0859 31.0078 41.0067 31.9543 40.3741 32.4892C37.7494 34.7087 31.6701 41.8562 29.3039 51.9971C29.1156 52.8039 28.309 53.3053 27.5023 53.117C26.6955 52.9288 26.1941 52.1222 26.3823 51.3154C28.9161 40.4563 35.3952 32.7706 38.4371 30.1984C39.0697 29.6635 40.0161 29.7427 40.551 30.3752Z" fill="#6ED3FF"/>
<path fill-rule="evenodd" clip-rule="evenodd" d="M21.8008 64.2345C21.5358 65.7471 21.32 67.1841 21.1514 68.5162L49.1703 67.3111L21.8008 64.2345ZM66.1227 66.582L77.3023 66.1011C76.296 54.2269 69.574 29.5124 50.7363 25.6483C49.2827 25.3501 47.8893 25.2585 46.5546 25.3507C62.8622 31.8994 66.3826 54.0596 66.1227 66.582Z" fill="#2697E9"/>
<path fill-rule="evenodd" clip-rule="evenodd" d="M50.5685 36.3181C50.8589 36.7878 50.7135 37.4041 50.2437 37.6945C47.6376 39.3056 44.5253 42.4701 41.6526 45.8592C38.7997 49.2249 36.2596 52.7193 34.7987 54.9004C34.4914 55.3593 33.8702 55.4821 33.4114 55.1747C32.9525 54.8674 32.8297 54.2462 33.137 53.7874C34.6344 51.5518 37.2194 47.9962 40.1269 44.566C43.0146 41.1593 46.2982 37.7822 49.1921 35.9933C49.6618 35.7029 50.2781 35.8483 50.5685 36.3181Z" fill="#198FE5"/>
<path fill-rule="evenodd" clip-rule="evenodd" d="M59.4435 40.8181C59.7339 41.2878 59.5885 41.9041 59.1187 42.1945C56.5141 43.8046 53.9794 46.4388 51.7007 49.2763C49.5382 51.9691 47.6569 54.7796 46.2007 56.9551C46.1281 57.0634 46.0566 57.1703 45.9862 57.2754C45.6789 57.7343 45.0577 57.8571 44.5989 57.5497C44.14 57.2424 44.0172 56.6212 44.3245 56.1624C44.3974 56.0535 44.4717 55.9426 44.5472 55.8299C45.9984 53.6617 47.9228 50.7866 50.1413 48.024C52.4668 45.1281 55.1716 42.2832 58.0671 40.4933C58.5368 40.2029 59.1531 40.3483 59.4435 40.8181Z" fill="#198FE5"/>
<path fill-rule="evenodd" clip-rule="evenodd" d="M28.8437 46.8019C28.8668 46.2501 29.3328 45.8215 29.8846 45.8446C34.036 46.0185 40.4758 47.8452 46.5035 50.1998C50.3179 51.6898 54.0613 53.4279 57.0279 55.1569C57.74 54.096 58.4 53.1705 59.1727 52.2991C60.5 50.8023 62.145 49.4722 64.942 47.7432C65.4117 47.4528 66.028 47.5982 66.3184 48.0679C66.6088 48.5377 66.4634 49.154 65.9936 49.4444C63.2906 51.1153 61.821 52.3269 60.6691 53.626C59.9798 54.4034 59.3985 55.2154 58.7326 56.2067C59.7163 56.8499 60.5705 57.4846 61.258 58.0971C61.6704 58.4645 61.7068 59.0966 61.3395 59.509C60.9721 59.9213 60.34 59.9578 59.9276 59.5904C59.3136 59.0434 58.5362 58.4663 57.6283 57.8732C57.4641 58.1212 57.2923 58.3798 57.1111 58.6503C56.8038 59.1091 56.1826 59.232 55.7238 58.9246C55.2649 58.6173 55.1421 57.9961 55.4494 57.5373C55.6125 57.2938 55.7697 57.0572 55.922 56.827C53.1263 55.2081 49.5373 53.5321 45.7758 52.0627C39.7931 49.7257 33.6079 48.0023 29.8009 47.8429C29.2491 47.8198 28.8206 47.3537 28.8437 46.8019Z" fill="#198FE5"/>
<path fill-rule="evenodd" clip-rule="evenodd" d="M36.5322 38.2416C36.7268 37.7248 37.3036 37.4635 37.8204 37.6582C44.5688 40.1992 60.1695 46.8252 68.1979 52.9227C68.6377 53.2567 68.7234 53.884 68.3894 54.3238C68.0554 54.7637 67.428 54.8494 66.9882 54.5154C59.2166 48.6129 43.8673 42.0722 37.1157 39.5299C36.5988 39.3353 36.3376 38.7585 36.5322 38.2416Z" fill="#198FE5"/>
<path fill-rule="evenodd" clip-rule="evenodd" d="M45.2956 33.0829C45.5089 32.5734 46.0947 32.3333 46.6042 32.5466C49.3132 33.6806 53.5122 35.5879 57.3192 37.6317C59.2218 38.6531 61.0435 39.7178 62.538 40.7449C64.0009 41.7503 65.2607 42.7927 65.9251 43.7893C66.2314 44.2488 66.1073 44.8697 65.6477 45.1761C65.1882 45.4824 64.5673 45.3582 64.261 44.8987C63.8254 44.2453 62.8477 43.3846 61.4051 42.3931C59.9941 41.4234 58.2424 40.3974 56.3731 39.3938C52.6363 37.3876 48.4979 35.5074 45.8319 34.3915C45.3224 34.1782 45.0823 33.5923 45.2956 33.0829Z" fill="#198FE5"/>
<path d="M14.7178 70.9313C14.7178 67.5967 17.421 64.8936 20.7555 64.8936H78.7178C82.0523 64.8936 84.7555 67.5967 84.7555 70.9313V70.9313C84.7555 74.2658 82.0523 76.969 78.7178 76.969H20.7555C17.4209 76.969 14.7178 74.2658 14.7178 70.9313V70.9313Z" fill="#FF5E8E"/>
<path fill-rule="evenodd" clip-rule="evenodd" d="M20.7555 62.8936H78.7178C83.1569 62.8936 86.7555 66.4922 86.7555 70.9313C86.7555 75.3704 83.1569 78.969 78.7178 78.969H20.7555C16.3164 78.969 12.7178 75.3704 12.7178 70.9313C12.7178 66.4922 16.3164 62.8936 20.7555 62.8936ZM20.7555 64.8936C17.421 64.8936 14.7178 67.5967 14.7178 70.9313C14.7178 74.2658 17.4209 76.969 20.7555 76.969H78.7178C82.0523 76.969 84.7555 74.2658 84.7555 70.9313C84.7555 67.5967 82.0523 64.8936 78.7178 64.8936H20.7555Z" fill="#B91E4C"/>
<path fill-rule="evenodd" clip-rule="evenodd" d="M18.9678 74.7188C18.9678 73.8903 19.6393 73.2188 20.4678 73.2188H78.0928C78.9212 73.2188 79.5928 73.8903 79.5928 74.7188C79.5928 75.5472 78.9212 76.2188 78.0928 76.2188H20.4678C19.6393 76.2188 18.9678 75.5472 18.9678 74.7188Z" fill="#E34172"/>
<path fill-rule="evenodd" clip-rule="evenodd" d="M45.1553 66.1562C45.9837 66.1562 46.6553 66.8278 46.6553 67.6562V74.2188C46.6553 75.0472 45.9837 75.7188 45.1553 75.7188C44.3268 75.7188 43.6553 75.0472 43.6553 74.2188V67.6562C43.6553 66.8278 44.3268 66.1562 45.1553 66.1562Z" fill="#FF97B6"/>
<path fill-rule="evenodd" clip-rule="evenodd" d="M37.8428 66.1562C38.6712 66.1562 39.3428 66.8278 39.3428 67.6562V74.2188C39.3428 75.0472 38.6712 75.7188 37.8428 75.7188C37.0143 75.7188 36.3428 75.0472 36.3428 74.2188V67.6562C36.3428 66.8278 37.0143 66.1562 37.8428 66.1562Z" fill="#FF97B6"/>
<path fill-rule="evenodd" clip-rule="evenodd" d="M30.2178 66.1562C31.0462 66.1562 31.7178 66.8278 31.7178 67.6562V74.2188C31.7178 75.0472 31.0462 75.7188 30.2178 75.7188C29.3893 75.7188 28.7178 75.0472 28.7178 74.2188V67.6562C28.7178 66.8278 29.3893 66.1562 30.2178 66.1562Z" fill="#FF97B6"/>
<path fill-rule="evenodd" clip-rule="evenodd" d="M24.2803 66.4688C25.1087 66.4688 25.7803 67.1403 25.7803 67.9688V74.5312C25.7803 75.3597 25.1087 76.0312 24.2803 76.0312C23.4518 76.0312 22.7803 75.3597 22.7803 74.5312V67.9688C22.7803 67.1403 23.4518 66.4688 24.2803 66.4688Z" fill="#FF97B6"/>
<path fill-rule="evenodd" clip-rule="evenodd" d="M19.1553 67.4688C19.9837 67.4688 20.6553 68.1403 20.6553 68.9688V72.5312C20.6553 73.3597 19.9837 74.0312 19.1553 74.0312C18.3268 74.0312 17.6553 73.3597 17.6553 72.5312V68.9688C17.6553 68.1403 18.3268 67.4688 19.1553 67.4688Z" fill="#FF97B6"/>
<path fill-rule="evenodd" clip-rule="evenodd" d="M51.9678 66.1562C52.7962 66.1562 53.4678 66.8278 53.4678 67.6562V74.2188C53.4678 75.0472 52.7962 75.7188 51.9678 75.7188C51.1393 75.7188 50.4678 75.0472 50.4678 74.2188V67.6562C50.4678 66.8278 51.1393 66.1562 51.9678 66.1562Z" fill="#FF97B6"/>
<path fill-rule="evenodd" clip-rule="evenodd" d="M59.7178 66.1504C60.5462 66.1504 61.2178 66.822 61.2178 67.6504V74.2129C61.2178 75.0413 60.5462 75.7129 59.7178 75.7129C58.8893 75.7129 58.2178 75.0413 58.2178 74.2129V67.6504C58.2178 66.822 58.8893 66.1504 59.7178 66.1504Z" fill="#FF97B6"/>
<path fill-rule="evenodd" clip-rule="evenodd" d="M66.1553 66.1504C66.9837 66.1504 67.6553 66.822 67.6553 67.6504V74.2129C67.6553 75.0413 66.9837 75.7129 66.1553 75.7129C65.3268 75.7129 64.6553 75.0413 64.6553 74.2129V67.6504C64.6553 66.822 65.3268 66.1504 66.1553 66.1504Z" fill="#FF97B6"/>
<path fill-rule="evenodd" clip-rule="evenodd" d="M73.8428 66.1562C74.6712 66.1562 75.3428 66.8278 75.3428 67.6562V74.2188C75.3428 75.0472 74.6712 75.7188 73.8428 75.7188C73.0143 75.7188 72.3428 75.0472 72.3428 74.2188V67.6562C72.3428 66.8278 73.0143 66.1562 73.8428 66.1562Z" fill="#FF97B6"/>
<path fill-rule="evenodd" clip-rule="evenodd" d="M79.9678 66.6562C80.7962 66.6562 81.4678 67.3278 81.4678 68.1562V72.7188C81.4678 73.5472 80.7962 74.2188 79.9678 74.2188C79.1393 74.2188 78.4678 73.5472 78.4678 72.7188V68.1562C78.4678 67.3278 79.1393 66.6562 79.9678 66.6562Z" fill="#FF97B6"/>
</svg>
